<svg width="12" height="9" viewBox="0 0 12 9" fill="none" xmlns="http://www.w3.org/2000/svg">
<path d="M3.86607 7.38223L1.60801 5.12416C1.54896 5.06439 1.47864 5.01694 1.40112 4.98455C1.32359 4.95217 1.24041 4.93549 1.1564 4.93549C1.07238 4.93549 0.9892 4.95217 0.911677 4.98455C0.834154 5.01694 0.763831 5.06439 0.704784 5.12416C0.645016 5.18321 0.597564 5.25353 0.565177 5.33105C0.53279 5.40858 0.516113 5.49176 0.516113 5.57577C0.516113 5.65979 0.53279 5.74297 0.565177 5.82049C0.597564 5.89802 0.645016 5.96834 0.704784 6.02739L3.40801 8.73061C3.65962 8.98223 4.06607 8.98223 4.31769 8.73061L11.1564 1.89835C11.2162 1.83931 11.2636 1.76898 11.296 1.69146C11.3284 1.61394 11.3451 1.53076 11.3451 1.44674C11.3451 1.36272 11.3284 1.27954 11.296 1.20202C11.2636 1.1245 11.2162 1.05418 11.1564 0.995128C11.0973 0.935361 11.027 0.887908 10.9495 0.855521C10.872 0.823134 10.7888 0.806458 10.7048 0.806458C10.6208 0.806458 10.5376 0.823134 10.4601 0.855521C10.3825 0.887908 10.3122 0.935361 10.2532 0.995128L3.86607 7.38223Z" fill="white"/>
</svg>
